<svg width="18" height="18" viewBox="0 0 18 18" fill="none" xmlns="http://www.w3.org/2000/svg">
<path d="M7.05289 13.1667H10.947M8.99995 1.5V2.33333M14.3033 3.6967L13.714 4.28596M16.5 8.99996H15.6667M2.33333 8.99996H1.5M4.28591 4.28595L3.69665 3.6967M6.05368 11.9463C4.42649 10.3191 4.42649 7.68093 6.05368 6.05374C7.68086 4.42656 10.319 4.42656 11.9462 6.05374C13.5734 7.68093 13.5734 10.3191 11.9462 11.9463L11.4903 12.4022C10.9629 12.9296 10.6666 13.6449 10.6666 14.3908V14.8333C10.6666 15.7538 9.92043 16.5 8.99995 16.5C8.07948 16.5 7.33329 15.7538 7.33329 14.8333V14.3908C7.33329 13.6449 7.037 12.9296 6.50959 12.4022L6.05368 11.9463Z" stroke="#EA580C" stroke-width="2" stroke-linecap="round" stroke-linejoin="round"/>
</svg>
